<?xml version="1.0" standalone="no"?>
<!DOCTYPE svg PUBLIC "-//W3C//DTD SVG 20010904//EN"
 "http://www.w3.org/TR/2001/REC-SVG-20010904/DTD/svg10.dtd">
<svg version="1.0" xmlns="http://www.w3.org/2000/svg"
 width="566.000000pt" height="566.000000pt" viewBox="0 0 566.000000 566.000000"
 preserveAspectRatio="xMidYMid meet">
<metadata>
Created by potrace 1.11, written by Peter Selinger 2001-2013
</metadata>
<g transform="translate(0.000000,566.000000) scale(0.100000,-0.100000)"
fill="#000000" stroke="none">
<path d="M2780 5632 c-14 -15 -61 -58 -105 -97 -43 -38 -83 -74 -89 -80 -6 -5
-31 -28 -56 -49 -25 -21 -76 -67 -115 -101 -38 -34 -176 -156 -305 -270 -284
-251 -303 -268 -360 -319 -25 -23 -74 -66 -109 -96 -35 -30 -74 -64 -85 -75
-12 -11 -75 -67 -141 -125 -66 -58 -122 -107 -125 -110 -3 -3 -68 -61 -145
-129 -77 -68 -173 -154 -214 -190 -40 -36 -77 -68 -81 -71 -4 -3 -41 -35 -81
-71 -181 -163 -716 -634 -741 -652 -27 -20 -36 -42 -20 -49 4 -1 61 -64 127
-138 66 -74 130 -145 141 -159 l22 -23 144 128 c79 71 177 158 218 194 78 69
140 123 255 225 119 106 357 317 429 380 38 33 81 71 96 85 44 40 207 184 435
384 38 34 76 68 85 76 8 8 105 94 214 190 109 96 210 185 225 198 14 13 57 51
96 85 38 34 94 84 125 111 30 26 69 61 85 76 17 15 52 46 78 69 l49 41 121
-108 c67 -60 137 -122 156 -138 19 -16 39 -33 45 -39 6 -5 52 -46 101 -90 50
-44 92 -82 95 -85 3 -3 36 -32 74 -65 69 -60 108 -94 156 -139 14 -13 84 -74
155 -136 72 -62 139 -123 151 -134 12 -12 34 -32 50 -45 16 -13 65 -56 109
-95 44 -39 96 -85 115 -102 55 -49 229 -202 310 -274 40 -36 78 -70 84 -75 6
-6 90 -80 186 -165 96 -85 191 -169 210 -186 19 -17 120 -107 224 -198 l190
-167 25 28 c87 95 246 276 258 293 14 20 13 24 -23 53 -21 18 -102 88 -179
156 -77 68 -160 142 -185 163 -25 22 -74 66 -110 98 -36 31 -247 218 -470 415
-223 196 -425 376 -450 399 -25 22 -79 70 -120 106 -41 36 -77 67 -80 70 -3 3
-61 55 -130 115 -69 61 -145 128 -169 150 -54 49 -49 45 -146 130 -44 38 -85
74 -91 80 -6 5 -120 107 -254 225 -134 118 -276 245 -315 282 -79 76 -105 83
-145 40z"/>
<path d="M849 5298 c-6 -12 -2 -1048 4 -1048 4 0 20 12 36 28 16 15 44 41 63
57 45 41 330 298 448 404 157 142 150 134 150 188 1 84 2 276 1 326 l-1 47
-350 0 c-192 0 -351 -1 -351 -2z"/>
<path d="M2703 4588 c-70 -62 -130 -115 -133 -118 -3 -3 -63 -57 -135 -120
-71 -63 -132 -117 -135 -120 -3 -3 -41 -36 -85 -75 -44 -38 -96 -84 -115 -101
-19 -17 -60 -53 -91 -80 -134 -119 -215 -190 -234 -209 -12 -11 -46 -40 -76
-65 -29 -25 -58 -50 -64 -56 -5 -7 -53 -50 -106 -96 -347 -303 -678 -601 -675
-607 3 -4 81 -7 174 -6 l169 0 1 -350 c0 -192 1 -359 1 -370 1 -13 78 58 264
242 364 364 467 461 496 471 32 11 287 10 298 -1 4 -5 2 -12 -5 -16 -7 -4
-172 -167 -367 -361 l-355 -353 25 -32 c13 -18 48 -64 77 -102 56 -73 430
-557 451 -583 34 -42 675 -871 701 -907 17 -23 36 -43 41 -46 10 -5 42 35 545
687 30 40 145 188 255 330 413 534 487 631 492 644 3 7 -152 168 -363 377
-202 201 -362 366 -354 366 50 4 279 4 300 0 15 -2 142 -120 344 -320 175
-174 335 -333 355 -354 74 -78 69 -98 70 291 0 191 0 357 1 368 0 21 3 21 161
20 88 0 165 2 170 5 6 3 -9 23 -33 44 -24 21 -77 69 -118 106 -41 36 -178 158
-305 269 -126 112 -261 230 -299 264 -38 34 -74 66 -80 71 -6 6 -34 30 -62 55
-107 96 -201 179 -234 206 -19 16 -42 36 -50 45 -8 9 -73 67 -145 130 -71 62
-132 116 -135 119 -3 3 -41 36 -85 75 -44 38 -85 74 -91 80 -6 5 -44 39 -84
75 -41 36 -113 100 -162 143 l-87 78 -128 -113z m210 -1070 c90 -47 134 -121
129 -217 -4 -73 -41 -128 -117 -176 -45 -29 -159 -26 -209 4 -161 100 -137
335 41 396 42 15 123 11 156 -7z m49 -577 c21 -1 120 -95 493 -467 l466 -465
-37 -47 c-58 -72 -78 -97 -93 -119 -12 -18 -46 -30 -36 -12 8 12 -62 67 -98
77 -20 6 -367 10 -833 10 -895 0 -841 4 -895 -72 l-26 -37 -75 93 c-41 51 -77
98 -81 105 -5 8 32 52 100 119 59 58 107 112 105 118 -2 6 0 8 4 4 10 -11 104
83 97 96 -4 6 -3 8 2 4 11 -11 36 12 28 26 -3 6 -3 8 2 4 11 -10 195 173 188
186 -4 6 -3 8 2 4 11 -10 105 83 98 96 -4 6 -3 8 2 4 11 -11 36 12 28 26 -3 6
-3 8 2 4 11 -10 136 113 128 126 -3 6 -3 8 2 4 11 -11 36 12 28 25 -3 5 -1 7
5 3 6 -3 17 2 24 11 7 10 26 29 41 43 37 32 103 39 329 31z"/>
<path d="M2785 3421 c-20 -9 -74 -61 -62 -61 4 0 3 -11 -2 -23 -7 -17 -4 -35
9 -64 49 -111 219 -59 203 62 -8 61 -92 109 -148 86z"/>
<path d="M2558 2456 c-157 -158 -285 -287 -285 -287 6 -4 1137 -3 1137 1 0 3
-127 132 -283 288 l-283 283 -286 -285z"/>
<path d="M1302 1955 c-111 -104 -110 -100 -110 -302 0 -95 3 -173 7 -173 5 0
71 63 148 140 130 130 141 139 156 122 8 -9 42 -53 76 -97 l60 -80 -210 -211
c-116 -116 -216 -219 -222 -230 -11 -18 -19 -772 -9 -801 3 -9 173 -12 734
-12 l729 0 -24 32 c-13 18 -43 59 -68 92 -24 33 -46 62 -49 65 -3 3 -176 232
-385 510 -640 852 -747 995 -755 1003 -4 4 -39 -22 -78 -58z"/>
<path d="M3654 1183 c-346 -460 -635 -844 -642 -855 -13 -17 10 -18 720 -18
l733 0 -1 402 c-1 222 -2 407 -3 412 0 6 -98 107 -216 226 -118 118 -215 219
-215 223 0 6 56 88 87 127 7 8 21 26 31 40 l20 24 125 -124 c69 -69 136 -135
149 -147 l24 -22 -1 189 -1 189 -86 85 c-47 48 -88 86 -91 86 -2 0 -287 -376
-633 -837z"/>
</g>
</svg>
